<svg width="20" height="21" viewBox="0 0 20 21" fill="none" xmlns="http://www.w3.org/2000/svg">
<path d="M19.3375 9.79867C18.6024 7.8972 17.3262 6.2528 15.6667 5.06872C14.0072 3.88464 12.0372 3.21278 9.99998 3.13617C7.9628 3.21278 5.99272 3.88464 4.33323 5.06872C2.67374 6.2528 1.39758 7.8972 0.662478 9.79867C0.612833 9.93599 0.612833 10.0864 0.662478 10.2237C1.39758 12.1251 2.67374 13.7695 4.33323 14.9536C5.99272 16.1377 7.9628 16.8096 9.99998 16.8862C12.0372 16.8096 14.0072 16.1377 15.6667 14.9536C17.3262 13.7695 18.6024 12.1251 19.3375 10.2237C19.3871 10.0864 19.3871 9.93599 19.3375 9.79867ZM9.99998 15.6362C6.68748 15.6362 3.18748 13.1799 1.91873 10.0112C3.18748 6.84242 6.68748 4.38617 9.99998 4.38617C13.3125 4.38617 16.8125 6.84242 18.0812 10.0112C16.8125 13.1799 13.3125 15.6362 9.99998 15.6362Z" fill="#585858"/>
<path d="M10 6.26117C9.25832 6.26117 8.5333 6.4811 7.91661 6.89316C7.29993 7.30521 6.81928 7.89088 6.53545 8.57611C6.25162 9.26133 6.17736 10.0153 6.32206 10.7428C6.46675 11.4702 6.8239 12.1384 7.34835 12.6628C7.8728 13.1873 8.54098 13.5444 9.26841 13.6891C9.99584 13.8338 10.7498 13.7595 11.4351 13.4757C12.1203 13.1919 12.706 12.7112 13.118 12.0946C13.5301 11.4779 13.75 10.7528 13.75 10.0112C13.75 9.01661 13.3549 8.06278 12.6517 7.35952C11.9484 6.65626 10.9946 6.26117 10 6.26117ZM10 12.5112C9.50555 12.5112 9.0222 12.3645 8.61108 12.0898C8.19995 11.8151 7.87952 11.4247 7.6903 10.9679C7.50108 10.5111 7.45158 10.0084 7.54804 9.52344C7.6445 9.03849 7.8826 8.59303 8.23223 8.2434C8.58187 7.89377 9.02732 7.65567 9.51228 7.55921C9.99723 7.46274 10.4999 7.51225 10.9567 7.70147C11.4135 7.89069 11.804 8.21112 12.0787 8.62224C12.3534 9.03337 12.5 9.51672 12.5 10.0112C12.5 10.6742 12.2366 11.3101 11.7678 11.7789C11.2989 12.2478 10.663 12.5112 10 12.5112Z" fill="#585858"/>
</svg>
