<svg width="25" height="25" viewBox="0 0 25 25" fill="none" xmlns="http://www.w3.org/2000/svg">
<path d="M0.502461 9.03751C0.473711 9.55126 0.761211 10.03 1.22871 10.245L10.6087 14.5475L14.9112 23.9263C15.1162 24.3713 15.5612 24.655 16.0475 24.655L16.1187 24.6525C16.3696 24.6385 16.6104 24.5491 16.8097 24.3962C17.0091 24.2432 17.1577 24.0337 17.2362 23.795L24.23 2.50501C24.3762 2.05751 24.2587 1.56376 23.9262 1.23001C23.5937 0.896262 23.1012 0.782512 22.6512 0.926262L1.35996 7.92001C1.12127 7.99852 0.911781 8.14714 0.758817 8.34648C0.605854 8.54582 0.516517 8.78664 0.502461 9.03751ZM21.0825 4.07376L15.855 19.9863L12.6875 13.0838C12.5629 12.8116 12.3446 12.5934 12.0725 12.4688L5.16746 9.30126L21.0825 4.07376Z" fill="white"/>
</svg>
