<svg width="20" height="20" viewBox="0 0 20 20" fill="none" xmlns="http://www.w3.org/2000/svg">
<circle cx="10" cy="10" r="9" stroke="white" stroke-width="2"/>
<path d="M11.2227 13.1201H8.93262V15H7.62695V13.1201H6.21191V12.04H7.62695V11.1035H6.21191V10.0303H7.62695V5.04688H11.2979C12.3643 5.04688 13.2096 5.31803 13.834 5.86035C14.4583 6.40267 14.7705 7.13639 14.7705 8.06152C14.7705 9.03223 14.4697 9.7819 13.8682 10.3105C13.2712 10.8346 12.4212 11.099 11.3184 11.1035H8.93262V12.04H11.2227V13.1201ZM8.93262 10.0303H11.2979C12.0042 10.0303 12.542 9.86393 12.9111 9.53125C13.2803 9.19857 13.4648 8.71322 13.4648 8.0752C13.4648 7.49642 13.2734 7.0293 12.8906 6.67383C12.5078 6.3138 11.9906 6.13151 11.3389 6.12695H8.93262V10.0303Z" fill="white"/>
</svg>
