<svg width="25" height="26" viewBox="0 0 25 26" fill="none" xmlns="http://www.w3.org/2000/svg">
<path d="M4.875 16.75C6.0125 16.75 7.04125 16.3025 7.82125 15.5875L15.6462 20.0587C15.5536 20.4067 15.5045 20.7649 15.5 21.125C15.5 23.5375 17.4625 25.5 19.875 25.5C22.2875 25.5 24.25 23.5375 24.25 21.125C24.25 18.7125 22.2875 16.75 19.875 16.75C18.7375 16.75 17.7087 17.1975 16.9287 17.9125L9.10375 13.4412C9.1825 13.1325 9.2325 12.8137 9.23875 12.4812L16.9275 8.0875C17.7087 8.8025 18.7375 9.25 19.875 9.25C22.2875 9.25 24.25 7.2875 24.25 4.875C24.25 2.4625 22.2875 0.5 19.875 0.5C17.4625 0.5 15.5 2.4625 15.5 4.875C15.5 5.245 15.56 5.5975 15.6462 5.94125L8.54125 10.0025C8.14593 9.38916 7.60331 8.88458 6.9629 8.53479C6.3225 8.185 5.6047 8.00115 4.875 8C2.4625 8 0.5 9.9625 0.5 12.375C0.5 14.7875 2.4625 16.75 4.875 16.75ZM19.875 19.25C20.9088 19.25 21.75 20.0912 21.75 21.125C21.75 22.1587 20.9088 23 19.875 23C18.8412 23 18 22.1587 18 21.125C18 20.0912 18.8412 19.25 19.875 19.25ZM19.875 3C20.9088 3 21.75 3.84125 21.75 4.875C21.75 5.90875 20.9088 6.75 19.875 6.75C18.8412 6.75 18 5.90875 18 4.875C18 3.84125 18.8412 3 19.875 3ZM4.875 10.5C5.90875 10.5 6.75 11.3412 6.75 12.375C6.75 13.4087 5.90875 14.25 4.875 14.25C3.84125 14.25 3 13.4087 3 12.375C3 11.3412 3.84125 10.5 4.875 10.5Z" fill="white"/>
</svg>
