<svg width="11" height="10" viewBox="0 0 11 10" fill="none" xmlns="http://www.w3.org/2000/svg">
<path d="M9.83808 3.82544L7.0874 3.42568L5.85777 0.932835C5.82418 0.864582 5.76893 0.80933 5.70068 0.775746C5.52951 0.691242 5.3215 0.761662 5.23591 0.932835L4.00628 3.42568L1.2556 3.82544C1.17976 3.83628 1.11042 3.87203 1.05734 3.9262C0.993161 3.99216 0.957796 4.0809 0.959015 4.17293C0.960234 4.26495 0.997936 4.35273 1.06384 4.41697L3.054 6.35729L2.58381 9.09714C2.57279 9.16088 2.57984 9.22643 2.60417 9.28636C2.6285 9.34629 2.66914 9.3982 2.72147 9.43621C2.77381 9.47422 2.83575 9.49681 2.90026 9.50141C2.96478 9.50601 3.0293 9.49244 3.0865 9.46224L5.54684 8.16869L8.00718 9.46224C8.07435 9.49799 8.15235 9.50991 8.22711 9.49691C8.41561 9.46441 8.54237 9.28565 8.50987 9.09714L8.03968 6.35729L10.0298 4.41697C10.084 4.36388 10.1198 4.29454 10.1306 4.21871C10.1598 4.02912 10.0277 3.85361 9.83808 3.82544Z" fill="#3B57EA"/>
</svg>
