<svg width="11" height="10" viewBox="0 0 11 10" fill="none" xmlns="http://www.w3.org/2000/svg">
<path d="M9.74433 3.82544L6.99365 3.42568L5.76402 0.932835C5.73043 0.864582 5.67518 0.80933 5.60693 0.775746C5.43576 0.691242 5.22775 0.761662 5.14216 0.932835L3.91253 3.42568L1.16185 3.82544C1.08601 3.83628 1.01667 3.87203 0.963588 3.9262C0.899411 3.99216 0.864046 4.0809 0.865265 4.17293C0.866484 4.26495 0.904186 4.35273 0.970088 4.41697L2.96025 6.35729L2.49006 9.09714C2.47904 9.16088 2.48609 9.22643 2.51042 9.28636C2.53475 9.34629 2.57539 9.3982 2.62772 9.43621C2.68006 9.47422 2.742 9.49681 2.80651 9.50141C2.87103 9.50601 2.93555 9.49244 2.99275 9.46224L5.45309 8.16869L7.91343 9.46224C7.9806 9.49799 8.0586 9.50991 8.13336 9.49691C8.32186 9.46441 8.44862 9.28565 8.41612 9.09714L7.94593 6.35729L9.93609 4.41697C9.99026 4.36388 10.026 4.29454 10.0368 4.21871C10.0661 4.02912 9.93392 3.85361 9.74433 3.82544ZM7.10849 6.08428L7.49958 8.36262L5.45309 7.28791L3.4066 8.3637L3.79769 6.08536L2.1423 4.47114L4.43038 4.13854L5.45309 2.06604L6.4758 4.13854L8.76388 4.47114L7.10849 6.08428Z" fill="#3B57EA"/>
</svg>
